<?xml version="1.0" standalone="no"?>
<!DOCTYPE svg PUBLIC "-//W3C//DTD SVG 20010904//EN"
 "http://www.w3.org/TR/2001/REC-SVG-20010904/DTD/svg10.dtd">
<svg version="1.0" xmlns="http://www.w3.org/2000/svg"
 width="100.000000pt" height="100.000000pt" viewBox="0 0 100.000000 100.000000"
 preserveAspectRatio="xMidYMid meet">

<g transform="translate(0.000000,100.000000) scale(0.100000,-0.100000)"
fill="#ffffff" stroke="none">
<path d="M67 953 c-4 -3 -7 -23 -7 -43 0 -34 13 -51 158 -205 l157 -168 5
-185 5 -186 107 -64 c59 -35 112 -61 117 -57 7 4 11 89 11 248 l1 242 160 169
c157 167 160 170 157 210 l-3 41 -431 3 c-237 1 -434 -1 -437 -5z m831 -52
c-2 -11 -70 -91 -153 -179 l-150 -161 -95 0 -95 0 -150 161 c-82 88 -151 168
-153 179 -3 18 9 19 398 19 389 0 401 -1 398 -19z m-318 -591 c0 -116 -2 -210
-5 -210 -2 0 -38 21 -80 46 l-75 45 0 165 0 164 80 0 80 0 0 -210z"/>
</g>
</svg>
