<svg width="32" height="32" viewBox="0 0 32 32" fill="none" xmlns="http://www.w3.org/2000/svg">
<path d="M6.60008 27.3334C6.06675 27.3334 5.61119 27.1445 5.23341 26.7668C4.85564 26.389 4.66675 25.9334 4.66675 25.4001V6.60008C4.66675 6.06675 4.85564 5.61119 5.23341 5.23341C5.61119 4.85564 6.06675 4.66675 6.60008 4.66675H21.1001L27.3334 10.9001V25.4001C27.3334 25.9334 27.1445 26.389 26.7668 26.7668C26.389 27.1445 25.9334 27.3334 25.4001 27.3334H6.60008ZM9.63341 21.7334H22.3667V20.2334H9.63341V21.7334ZM9.63341 16.7667H22.3667V15.2334H9.63341V16.7667ZM20.2334 11.7667H25.8334L20.2334 6.16675V11.7667ZM9.63341 11.7667H16.0001V10.2667H9.63341V11.7667Z" fill="white"/>
</svg>
