<svg width="28" height="28" viewBox="0 0 28 28" fill="none" xmlns="http://www.w3.org/2000/svg">
<path d="M13.3292 25.0833V15.6041C12.9987 15.468 12.7362 15.2541 12.5417 14.9625C12.3473 14.6708 12.2501 14.35 12.2501 14C12.2501 13.5138 12.4202 13.1007 12.7605 12.7604C13.1008 12.4201 13.514 12.25 14.0001 12.25C14.4862 12.25 14.8994 12.4201 15.2397 12.7604C15.5799 13.1007 15.7501 13.5138 15.7501 14C15.7501 14.35 15.6529 14.6708 15.4584 14.9625C15.264 15.2541 15.0015 15.468 14.6709 15.6041V25.0833H13.3292ZM6.35841 22.05C5.30841 21.0194 4.4723 19.8187 3.85008 18.4479C3.22786 17.077 2.91675 15.5944 2.91675 14C2.91675 12.4638 3.20841 11.0201 3.79175 9.66871C4.37508 8.31732 5.16258 7.14579 6.15425 6.15413C7.14591 5.16246 8.31744 4.37496 9.66883 3.79163C11.0202 3.20829 12.464 2.91663 14.0001 2.91663C15.5362 2.91663 16.9799 3.20829 18.3313 3.79163C19.6827 4.37496 20.8542 5.16246 21.8459 6.15413C22.8376 7.14579 23.6251 8.31732 24.2084 9.66871C24.7917 11.0201 25.0834 12.4638 25.0834 14C25.0834 15.5944 24.7723 17.077 24.1501 18.4479C23.5279 19.8187 22.6917 21.0194 21.6417 22.05L20.7084 21.0875C21.6417 20.193 22.3855 19.143 22.9397 17.9375C23.4938 16.7319 23.7709 15.4194 23.7709 14C23.7709 11.2777 22.823 8.96871 20.9272 7.07288C19.0313 5.17704 16.7223 4.22913 14.0001 4.22913C11.2779 4.22913 8.96883 5.17704 7.073 7.07288C5.17716 8.96871 4.22925 11.2777 4.22925 14C4.22925 15.4194 4.50633 16.7319 5.0605 17.9375C5.61466 19.143 6.36814 20.193 7.32091 21.0875L6.35841 22.05ZM9.65425 18.7541C9.03203 18.1513 8.53133 17.4465 8.15216 16.6395C7.773 15.8326 7.58341 14.9527 7.58341 14C7.58341 12.2111 8.20564 10.6944 9.45008 9.44996C10.6945 8.20551 12.2112 7.58329 14.0001 7.58329C15.789 7.58329 17.3056 8.20551 18.5501 9.44996C19.7945 10.6944 20.4167 12.2111 20.4167 14C20.4167 14.9527 20.2272 15.8326 19.848 16.6395C19.4688 17.4465 18.9681 18.1513 18.3459 18.7541L17.3834 17.7916C17.9084 17.325 18.3265 16.7659 18.6376 16.1145C18.9487 15.4632 19.1042 14.7583 19.1042 14C19.1042 12.5805 18.6084 11.375 17.6167 10.3833C16.6251 9.39163 15.4195 8.89579 14.0001 8.89579C12.5806 8.89579 11.3751 9.39163 10.3834 10.3833C9.39175 11.375 8.89591 12.5805 8.89591 14C8.89591 14.7777 9.05147 15.4875 9.36258 16.1291C9.67369 16.7708 10.0917 17.325 10.6167 17.7916L9.65425 18.7541Z" fill="white"/>
</svg>
