<svg width="27" height="27" viewBox="0 0 27 27" fill="none" xmlns="http://www.w3.org/2000/svg">
<path d="M11.025 16.7063L17.8313 12.375L11.025 8.04375V16.7063ZM9.75938 23.0625V20.8125H4.44375C3.99375 20.8125 3.60937 20.6531 3.29062 20.3344C2.97187 20.0156 2.8125 19.6312 2.8125 19.1812V5.56875C2.8125 5.11875 2.97187 4.73437 3.29062 4.41562C3.60937 4.09687 3.99375 3.9375 4.44375 3.9375H22.5562C23.0062 3.9375 23.3906 4.09687 23.7094 4.41562C24.0281 4.73437 24.1875 5.11875 24.1875 5.56875V19.1812C24.1875 19.6312 24.0281 20.0156 23.7094 20.3344C23.3906 20.6531 23.0062 20.8125 22.5562 20.8125H17.2406V23.0625H9.75938Z" fill="white"/>
<path d="M8.30762 24.9231H18.6922" stroke="white" stroke-width="1.55769" stroke-linecap="round" stroke-linejoin="round"/>
</svg>
