<svg width="27" height="27" viewBox="0 0 27 27" fill="none" xmlns="http://www.w3.org/2000/svg">
<path d="M4.44375 24.1874C3.99375 24.1874 3.60937 24.028 3.29062 23.7093C2.97187 23.3905 2.8125 23.0062 2.8125 22.5562V8.15615C2.8125 8.0624 2.84531 7.96865 2.91094 7.8749C2.97656 7.78115 3.05625 7.71553 3.15 7.67803L17.1281 2.0249L17.5219 3.12178L7.11562 7.3124H22.5562C23.0062 7.3124 23.3906 7.47178 23.7094 7.79053C24.0281 8.10928 24.1875 8.49365 24.1875 8.94365V22.5562C24.1875 23.0062 24.0281 23.3905 23.7094 23.7093C23.3906 24.028 23.0062 24.1874 22.5562 24.1874H4.44375ZM8.91563 20.953C9.60938 20.953 10.2 20.7093 10.6875 20.2218C11.175 19.7343 11.4187 19.1343 11.4187 18.4218C11.4187 17.7093 11.175 17.1093 10.6875 16.6218C10.2 16.1343 9.6 15.8905 8.8875 15.8905C8.175 15.8905 7.575 16.139 7.0875 16.6358C6.6 17.1327 6.35625 17.7374 6.35625 18.4499C6.35625 19.1437 6.60469 19.7343 7.10156 20.2218C7.59844 20.7093 8.20312 20.953 8.91563 20.953ZM4.07812 12.8812H18.7031V11.1374H19.9688V12.8812H22.9219V8.94365C22.9219 8.8499 22.8844 8.76553 22.8094 8.69053C22.7344 8.61553 22.65 8.57803 22.5562 8.57803H4.44375C4.35 8.57803 4.26562 8.61553 4.19062 8.69053C4.11562 8.76553 4.07812 8.8499 4.07812 8.94365V12.8812Z" fill="white"/>
</svg>
