<svg width="1038" height="767" viewBox="0 0 1038 767" fill="none" xmlns="http://www.w3.org/2000/svg">
<g filter="url(#filter0_d_613_2)">
<path fill-rule="evenodd" clip-rule="evenodd" d="M743.526 544.549C893.9 544.549 1015.8 422.648 1015.8 272.275C1015.8 121.902 893.9 0 743.526 0C593.153 0 471.252 121.902 471.252 272.275C471.252 422.648 593.153 544.549 743.526 544.549ZM527.291 338.105C531.772 346.777 537.554 351.113 544.636 351.113C551.429 351.113 556.488 349.162 559.813 345.259C563.282 341.357 565.594 335.936 566.751 328.999C567.907 321.916 568.485 312.665 568.485 301.247L568.268 283.685C569.569 286.865 571.376 291.635 573.689 297.995C578.169 310.136 582 319.676 585.18 326.614C588.504 333.552 592.551 339.405 597.321 344.175C602.235 348.801 607.945 351.113 614.449 351.113C625.145 351.113 633.818 346.777 640.466 338.105C647.115 329.432 651.813 318.953 654.559 306.667C657.45 294.381 658.895 282.529 658.895 271.11C658.895 251.886 656.655 235.192 652.174 221.027C647.693 206.717 639.455 199.563 627.458 199.563C617.484 199.563 610.185 204.549 605.56 214.522C601.079 224.496 598.839 237.938 598.839 254.849C598.839 257.451 598.983 261.498 599.272 266.991L595.587 256.801C590.672 243.358 586.481 232.879 583.012 225.363C579.543 217.702 575.423 211.487 570.653 206.717C566.028 201.947 560.608 199.563 554.393 199.563C540.228 199.563 530.11 206.862 524.039 221.46C518.113 235.914 515.15 252.464 515.15 271.11C515.15 282.529 516.089 294.381 517.968 306.667C519.847 318.953 522.955 329.432 527.291 338.105ZM807.055 247.261C811.68 240.034 813.993 233.24 813.993 226.881C813.993 221.244 812.62 216.329 809.874 212.138C807.127 207.946 803.514 204.766 799.033 202.598C794.697 200.43 789.999 199.346 784.94 199.346C780.17 199.346 775.834 200.141 771.932 201.731C768.029 203.176 763.476 205.922 758.273 209.969C753.214 213.872 746.492 219.943 738.109 228.182C729.726 219.654 723.149 213.438 718.379 209.536C713.754 205.633 709.562 202.959 705.804 201.514C702.046 200.068 697.638 199.346 692.579 199.346C684.774 199.346 677.98 201.803 672.199 206.717C666.562 211.487 663.743 218.208 663.743 226.881C663.743 233.385 665.839 240.251 670.031 247.478C674.222 254.56 681.738 264.244 692.579 276.53C674.511 298.067 665.478 314.4 665.478 325.53C665.478 332.901 667.501 339.044 671.548 343.958C675.595 348.728 681.449 351.113 689.11 351.113C699.806 351.113 715.994 341.574 737.676 322.494C747.504 330.878 756.683 337.671 765.21 342.874C773.738 348.078 780.821 350.68 786.458 350.68C794.552 350.68 800.478 348.222 804.236 343.308C808.139 338.249 810.09 332.178 810.09 325.096C810.09 314.111 801.129 297.922 783.206 276.53C794.624 264.1 802.574 254.343 807.055 247.261ZM959.707 252.464C967.656 248.128 971.631 241.19 971.631 231.651C971.631 223.556 968.813 217.196 963.176 212.571C957.539 207.946 949.155 204.694 938.026 202.815C926.896 200.936 912.37 199.996 894.447 199.996C876.668 199.996 862.286 200.936 851.301 202.815C840.316 204.694 832.077 207.946 826.585 212.571C821.092 217.196 818.346 223.556 818.346 231.651C818.346 238.299 820.081 243.575 823.55 247.478C827.018 251.38 832.367 254.343 839.594 256.367C846.965 258.246 856.649 259.475 868.646 260.053C868.213 267.858 867.996 276.819 867.996 286.937C867.996 301.969 868.718 314.039 870.164 323.145C871.609 332.251 874.211 339.116 877.969 343.742C881.727 348.367 887.147 350.68 894.23 350.68C901.457 350.68 907.094 348.512 911.141 344.175C915.188 339.695 918.007 332.901 919.597 323.795C921.331 314.544 922.198 302.259 922.198 286.937C922.198 275.952 921.909 266.991 921.331 260.053C939.11 259.185 951.901 256.656 959.707 252.464Z" fill="url(#paint0_linear_613_2)"/>
<path fill-rule="evenodd" clip-rule="evenodd" d="M46.5047 431.075C55.9436 444.871 69.5573 451.768 87.3459 451.768C101.504 451.768 112.032 448.501 118.93 441.966C126.19 435.069 130.728 425.811 132.544 414.194C134.722 402.577 135.992 386.967 136.355 367.363C136.718 346.307 139.26 329.971 143.979 318.354C149.062 306.374 157.23 300.383 168.484 300.383C179.738 300.383 187.543 306.192 191.899 317.809C196.619 329.426 198.979 345.944 198.979 367.363C198.979 386.967 199.886 402.396 201.701 413.65C203.88 424.904 208.417 433.798 215.315 440.333C222.576 446.867 233.467 450.135 247.988 450.135C268.681 450.135 282.476 439.425 289.374 418.006C296.634 396.224 300.265 368.634 300.265 335.235C300.265 309.459 295.545 286.044 286.107 264.988C277.031 243.932 263.598 227.232 245.81 214.889C228.021 202.183 206.784 195.83 182.098 195.83C170.844 195.83 162.312 196.556 156.504 198.008C151.058 199.46 144.705 202.002 137.445 205.632V181.127C137.445 158.256 136.355 139.197 134.177 123.949C131.999 108.702 126.917 95.9959 118.93 85.8309C110.943 75.666 98.963 70.5836 82.9895 70.5836C64.4749 70.5836 50.8611 77.6627 42.1483 91.821C33.4355 105.616 27.8085 124.494 25.2673 148.454C23.0891 172.414 22 205.632 22 248.107C22 298.931 23.6336 338.683 26.9009 367.363C30.5313 396.043 37.0659 417.28 46.5047 431.075ZM345.76 168.602C358.103 181.309 373.169 187.662 390.958 187.662C408.383 187.662 423.268 181.309 435.611 168.602C448.317 155.533 454.67 139.741 454.67 121.227C454.67 103.075 448.317 87.6461 435.611 74.94C423.268 61.8708 408.383 55.3362 390.958 55.3362C373.169 55.3362 358.103 61.8708 345.76 74.94C333.417 87.6461 327.246 103.075 327.246 121.227C327.246 139.741 333.417 155.533 345.76 168.602ZM357.74 439.244C365.001 447.593 376.073 451.768 390.958 451.768C404.753 451.768 415.281 447.956 422.542 440.333C429.802 432.709 434.703 421.092 437.245 405.482C440.149 389.871 441.601 368.634 441.601 341.769C441.601 309.822 440.33 285.318 437.789 268.255C435.611 250.829 430.891 237.942 423.631 229.592C416.733 220.879 405.842 216.523 390.958 216.523C377.163 216.523 366.635 220.335 359.374 227.958C352.113 235.582 347.031 247.199 344.127 262.81C341.585 278.42 340.315 299.657 340.315 326.522C340.315 358.469 341.404 383.155 343.582 400.581C346.123 417.643 350.843 430.531 357.74 439.244ZM368.879 112.403V123.065V133.728C368.879 146.966 378.254 152.387 389.725 145.768L398.979 140.437L408.234 135.105C419.705 128.486 419.705 117.645 408.234 111.026L398.979 105.694L389.725 100.363C378.254 93.7442 368.879 99.1652 368.879 112.403Z" fill="url(#paint1_linear_613_2)"/>
</g>
<path d="M131.96 598.414H154.124V680.955H190.809V700.214H131.96V598.414ZM242.527 702.507C229.789 702.507 219.752 698.838 212.415 691.501C205.18 684.164 201.562 673.974 201.562 660.931C201.562 652.473 203.141 645.136 206.3 638.92C209.459 632.602 213.892 627.762 219.599 624.399C225.407 621.036 232.184 619.355 239.928 619.355C251.341 619.355 260.105 623.023 266.219 630.36C272.333 637.697 275.39 648.295 275.39 662.154C275.39 664.497 275.339 666.23 275.237 667.351H223.267C224.286 672.751 226.63 676.878 230.298 679.732C233.967 682.483 238.909 683.859 245.125 683.859C248.895 683.859 252.819 683.4 256.895 682.483C260.971 681.464 264.537 680.139 267.594 678.509L271.11 695.781C267.034 697.921 262.499 699.552 257.506 700.673C252.615 701.895 247.622 702.507 242.527 702.507ZM254.755 651.148C254.449 646.766 252.921 643.302 250.169 640.754C247.418 638.105 243.749 636.78 239.164 636.78C234.782 636.78 231.165 638.054 228.311 640.601C225.56 643.149 223.828 646.665 223.114 651.148H254.755ZM320.402 702.507C313.065 702.507 307.358 700.673 303.282 697.004C299.308 693.234 297.321 687.935 297.321 681.107V639.99H285.093V621.495H297.321V604.681C304.556 603.458 311.689 602.541 318.72 601.93V621.495H338.591V639.99H318.72V677.133C318.72 679.273 319.332 680.904 320.554 682.024C321.879 683.145 323.713 683.706 326.057 683.706C328.91 683.706 332.171 683.044 335.84 681.719L340.578 697.921C334.056 700.978 327.331 702.507 320.402 702.507ZM356.612 638.156C361.198 632.347 364.306 627.303 365.936 623.023L357.071 609.725C357.071 607.381 357.682 605.089 358.905 602.847C360.23 600.503 362.064 598.618 364.408 597.191C366.751 595.764 369.401 595.051 372.356 595.051C376.738 595.051 380.457 596.631 383.514 599.79C386.571 602.847 388.1 606.77 388.1 611.559C388.1 617.164 385.858 623.533 381.374 630.666C376.891 637.799 369.859 644.728 360.281 651.454L356.612 638.156ZM431.465 702.507C426.472 702.507 421.631 701.997 416.944 700.978C412.358 699.959 408.435 698.584 405.174 696.851L407.161 678.509C410.626 680.649 414.447 682.381 418.625 683.706C422.803 685.031 426.726 685.693 430.395 685.693C433.859 685.693 436.764 685.082 439.107 683.859C441.451 682.534 442.623 680.649 442.623 678.203C442.623 676.267 441.808 674.789 440.177 673.77C438.547 672.65 435.439 671.274 430.853 669.643L426.726 668.115C422.345 666.484 418.778 664.956 416.027 663.529C413.275 662.001 410.779 659.708 408.537 656.651C406.295 653.594 405.174 649.569 405.174 644.576C405.174 636.627 408.129 630.462 414.04 626.08C420.052 621.597 427.847 619.355 437.426 619.355C444.967 619.355 452.915 620.832 461.271 623.788L458.367 641.977C455.412 640.245 452.049 638.869 448.279 637.85C444.61 636.729 441.145 636.169 437.885 636.169C434.522 636.169 431.821 636.729 429.783 637.85C427.847 638.971 426.879 640.601 426.879 642.741C426.879 644.779 427.694 646.308 429.325 647.327C430.955 648.346 433.707 649.518 437.579 650.842C440.636 651.963 442.419 652.626 442.929 652.83C447.209 654.562 450.775 656.243 453.628 657.874C456.482 659.504 458.978 661.95 461.118 665.211C463.258 668.37 464.328 672.446 464.328 677.439C464.328 685.795 461.322 692.062 455.31 696.24C449.298 700.418 441.349 702.507 431.465 702.507ZM511.704 598.414H533.868V680.955H570.553V700.214H511.704V598.414ZM594.299 588.631H618.908V608.502H594.299V588.631ZM582.376 681.719H597.05V639.99H582.376V621.495H618.602V681.719H631.748V700.214H582.376V681.719ZM634.619 621.8L658.159 619.66L675.584 676.369L692.245 621.495H715.326L687.659 700.214H662.439L634.619 621.8ZM762.286 702.507C749.549 702.507 739.511 698.838 732.174 691.501C724.939 684.164 721.322 673.974 721.322 660.931C721.322 652.473 722.901 645.136 726.06 638.92C729.219 632.602 733.652 627.762 739.358 624.399C745.167 621.036 751.943 619.355 759.688 619.355C771.101 619.355 779.864 623.023 785.979 630.36C792.093 637.697 795.15 648.295 795.15 662.154C795.15 664.497 795.099 666.23 794.997 667.351H743.027C744.046 672.751 746.39 676.878 750.058 679.732C753.727 682.483 758.669 683.859 764.885 683.859C768.655 683.859 772.578 683.4 776.655 682.483C780.731 681.464 784.297 680.139 787.354 678.509L790.87 695.781C786.794 697.921 782.259 699.552 777.266 700.673C772.375 701.895 767.381 702.507 762.286 702.507ZM774.515 651.148C774.209 646.766 772.68 643.302 769.929 640.754C767.178 638.105 763.509 636.78 758.924 636.78C754.542 636.78 750.924 638.054 748.071 640.601C745.32 643.149 743.587 646.665 742.874 651.148H774.515Z" fill="#F24F05"/>
<defs>
<filter id="filter0_d_613_2" x="0.218019" y="0" width="1037.36" height="588.114" filterUnits="userSpaceOnUse" color-interpolation-filters="sRGB">
<feFlood flood-opacity="0" result="BackgroundImageFix"/>
<feColorMatrix in="SourceAlpha" type="matrix" values="0 0 0 0 0 0 0 0 0 0 0 0 0 0 0 0 0 0 127 0" result="hardAlpha"/>
<feOffset dy="21.782"/>
<feGaussianBlur stdDeviation="10.891"/>
<feComposite in2="hardAlpha" operator="out"/>
<feColorMatrix type="matrix" values="0 0 0 0 0 0 0 0 0 0 0 0 0 0 0 0 0 0 0.25 0"/>
<feBlend mode="normal" in2="BackgroundImageFix" result="effect1_dropShadow_613_2"/>
<feBlend mode="normal" in="SourceGraphic" in2="effect1_dropShadow_613_2" result="shape"/>
</filter>
<linearGradient id="paint0_linear_613_2" x1="742.46" y1="0" x2="742.46" y2="544.549" gradientUnits="userSpaceOnUse">
<stop offset="0.0291665" stop-color="#F27405"/>
<stop offset="0.425" stop-color="#F25C05"/>
<stop offset="1" stop-color="#F24405"/>
</linearGradient>
<linearGradient id="paint1_linear_613_2" x1="238.335" y1="55.3362" x2="238.335" y2="451.768" gradientUnits="userSpaceOnUse">
<stop stop-color="#F27405"/>
<stop offset="1" stop-color="#F24405"/>
</linearGradient>
</defs>
</svg>
