<svg width="40" height="40" viewBox="0 0 40 40" fill="none" xmlns="http://www.w3.org/2000/svg">
<path d="M20 25C22.7614 25 25 22.7614 25 20C25 17.2386 22.7614 15 20 15C17.2386 15 15 17.2386 15 20C15 22.7614 17.2386 25 20 25Z" stroke="white" stroke-width="3" stroke-miterlimit="10" stroke-linecap="round" stroke-linejoin="round"/>
<path d="M3.33301 21.4692V18.5358C3.33301 16.8025 4.74967 15.3692 6.49967 15.3692C9.51634 15.3692 10.7497 13.2358 9.23301 10.6192C8.36634 9.11916 8.88301 7.16916 10.3997 6.3025L13.283 4.6525C14.5997 3.86916 16.2997 4.33583 17.083 5.6525L17.2663 5.96916C18.7663 8.58583 21.233 8.58583 22.7497 5.96916L22.933 5.6525C23.7163 4.33583 25.4163 3.86916 26.733 4.6525L29.6163 6.3025C31.133 7.16916 31.6497 9.11916 30.783 10.6192C29.2663 13.2358 30.4997 15.3692 33.5163 15.3692C35.2497 15.3692 36.683 16.7858 36.683 18.5358V21.4692C36.683 23.2025 35.2663 24.6358 33.5163 24.6358C30.4997 24.6358 29.2663 26.7692 30.783 29.3858C31.6497 30.9025 31.133 32.8358 29.6163 33.7025L26.733 35.3525C25.4163 36.1358 23.7163 35.6692 22.933 34.3525L22.7497 34.0358C21.2497 31.4192 18.783 31.4192 17.2663 34.0358L17.083 34.3525C16.2997 35.6692 14.5997 36.1358 13.283 35.3525L10.3997 33.7025C8.88301 32.8358 8.36634 30.8858 9.23301 29.3858C10.7497 26.7692 9.51634 24.6358 6.49967 24.6358C4.74967 24.6358 3.33301 23.2025 3.33301 21.4692Z" stroke="white" stroke-width="3" stroke-miterlimit="10" stroke-linecap="round" stroke-linejoin="round"/>
</svg>
